<?xml version="1.0" encoding="utf-8"?>
<!-- Generator: Adobe Illustrator 28.0.0, SVG Export Plug-In . SVG Version: 6.00 Build 0)  -->
<svg version="1.1" id="Layer_1" xmlns="http://www.w3.org/2000/svg" xmlns:xlink="http://www.w3.org/1999/xlink" x="0px" y="0px"
	 viewBox="0 0 250 216.31473" style="enable-background:new 0 0 250 216.31473;" xml:space="preserve">
<style type="text/css">
	.st0{fill:#231F20;}
</style>
<g>
	<g>
		<path class="st0" d="M98.12325,200.18176c-6.0173,0-12.00021-2.21257-16.02731-6.28389
			c-2.8944-2.92635-4.93006-6.96942-5.88954-11.69186c-1.85139-9.12302-0.50983-17.71776,3.68066-23.5815
			c3.95953-5.53941,10.73115-8.623,18.17109-8.27902c11.98547,0.57619,21.39227,11.00635,21.88245,24.26334
			c0.33293,8.94241-4.42883,20.31117-12.97075,23.85423C104.17495,199.62401,101.14419,200.18176,98.12325,200.18176z
			 M96.90701,154.71289c-5.54556,0-10.52107,2.3772-13.44495,6.46695c-4.94727,6.92395-3.71014,16.39955-2.94846,20.15146
			c0.54915,2.70767,1.81207,6.54927,4.7077,9.4756c4.84406,4.89935,13.28648,6.41043,20.06424,3.59712
			c6.68685-2.774,10.53458-12.35034,10.26431-19.63303c-0.46193-12.48303-9.46577-19.63918-17.70303-20.03476l0,0
			C97.53233,154.72026,97.21906,154.71289,96.90701,154.71289z"/>
	</g>
	<g>
		<path class="st0" d="M92.04697,191.29955c-2.61061,0-5.08977-1.44351-7.01978-4.09958
			c-1.88947-2.60078-3.04797-6.10699-3.26173-9.87242c-0.21499-3.76543,0.53687-7.38097,2.1192-10.18077
			c1.69905-3.0062,4.15364-4.74825,6.91045-4.90427c2.76663-0.17076,5.39445,1.29486,7.42397,4.08853
			c1.88947,2.60078,3.04797,6.10698,3.26173,9.87241l0,0c0.215,3.76543-0.53687,7.38097-2.1192,10.17955
			c-1.69904,3.0062-4.15363,4.74825-6.91044,4.90427C92.31602,191.29585,92.18088,191.29955,92.04697,191.29955z
			 M91.18946,165.16025c-0.07617,0-0.15111,0.00246-0.22728,0.00615c-1.7273,0.0995-3.33544,1.31451-4.52711,3.42267
			c-1.30837,2.31577-1.92878,5.36005-1.74573,8.5714c0.18304,3.21136,1.14498,6.16473,2.70766,8.31711
			c1.42386,1.95827,3.16344,2.97057,4.88706,2.8858c1.7273-0.09952,3.33544-1.31451,4.52711-3.42267
			c1.30838-2.31577,1.92879-5.35881,1.74574-8.57018h-0.00123c-0.18182-3.21259-1.14375-6.16595-2.70644-8.31833
			C94.48804,166.17993,92.84183,165.16025,91.18946,165.16025z"/>
	</g>
	<g>
		<path class="st0" d="M167.17854,216.31473c-5.57013,0-11.10709-2.04672-14.83443-5.81583
			c-2.67818-2.70644-4.56396-6.44975-5.45096-10.82083c-1.71501-8.44487-0.47298-16.40079,3.40547-21.82718
			c3.66714-5.12907,9.97929-7.98907,16.81848-7.66351l0,0c11.09357,0.53317,19.80133,10.18814,20.25589,22.45862
			c0.30591,8.2778-4.10081,18.80009-12.00636,22.07903C172.77937,215.79875,169.97466,216.31473,167.17854,216.31473z
			 M166.05321,174.23044c-5.13277,0-9.73851,2.20029-12.44495,5.9866c-4.57993,6.40674-3.43372,15.17717-2.72977,18.65143
			c0.50983,2.5062,1.67938,6.06276,4.35757,8.77043c4.48534,4.53325,12.29874,5.935,18.57158,3.3293
			c6.18806-2.56761,9.74956-11.43141,9.5014-18.17232c-0.42876-11.55426-8.76306-18.17845-16.38605-18.54456
			C166.63062,174.23659,166.34068,174.23044,166.05321,174.23044z"/>
	</g>
	<g>
		<g>
			<path class="st0" d="M249.98698,162.06625c-0.39342-10.64783-7.94977-19.02533-17.57759-19.48741
				c-5.9498-0.29756-11.41321,2.19881-14.59482,6.64935c-1.32616,1.85565-2.28232,4.06125-2.88094,6.49065
				c1.02171,0.16989,2.00505,0.48024,2.93922,0.97101c0.13564,0.04417,0.26073,0.1064,0.39333,0.15585
				c0.43642-1.92003,1.18925-3.84103,2.42099-5.56462c2.3476-3.28606,6.34465-5.19444,10.79663-5.19444
				c0.25035,0,0.50356,0.00572,0.75677,0.01717c8.86533,0.42632,13.94247,8.60925,14.21857,16.09407
				c0.21602,5.84822-2.8726,13.54048-8.24303,15.7679c-3.05089,1.26598-6.50504,1.40671-9.64803,0.62695
				c-0.58771,1.10083-1.319,2.12531-2.13695,3.0509c1.92844,0.62221,3.9731,0.96295,6.03117,0.96295
				c2.42627,0,4.86113-0.44777,7.10713-1.37907C246.42912,178.38065,250.25307,169.24922,249.98698,162.06625z"/>
		</g>
	</g>
	<g>
		<path class="st0" d="M161.55313,208.09468c-2.4165,0-4.71016-1.33662-6.49643-3.79491
			c-1.74942-2.4079-2.82193-5.65244-3.01971-9.13776c-0.19902-3.48532,0.49756-6.83182,1.96194-9.42278
			c1.57251-2.78261,3.84406-4.39565,6.39693-4.54062c2.56885-0.14865,4.99394,1.19904,6.87112,3.78508
			c1.74942,2.40668,2.82193,5.65244,3.01971,9.13776l0,0c0.19902,3.48532-0.49754,6.83182-1.96194,9.42154
			c-1.57251,2.78261-3.84406,4.39566-6.39693,4.54063C161.80252,208.091,161.67722,208.09468,161.55313,208.09468z
			 M160.76073,183.90015c-0.07002,0-0.14005,0.00246-0.21007,0.00615c-1.59955,0.09091-3.08728,1.21623-4.19051,3.16713
			c-1.21132,2.14377-1.78503,4.96077-1.61549,7.93381c0.1683,2.97302,1.05898,5.70648,2.50618,7.69792
			c1.31821,1.81453,2.94476,2.74698,4.5222,2.67081c1.59953-0.09091,3.08727-1.21623,4.19049-3.16713
			c1.21132-2.14255,1.78503-4.96078,1.61551-7.93257l0,0c-0.16832-2.97304-1.05899-5.70772-2.5062-7.69916
			C163.81361,184.84366,162.29024,183.90015,160.76073,183.90015z"/>
	</g>
	<g>
		<path class="st0" d="M94.87135,189.15823c-4.0271-2.51726-6.82076-6.82814-7.47188-11.53093
			c-0.64989-4.70525,0.86857-9.61197,4.06273-13.12553l1.08356,0.98528c-2.90424,3.19661-4.28632,7.65984-3.69418,11.93878
			s3.13274,8.20039,6.7962,10.48914L94.87135,189.15823z"/>
	</g>
	<g>
		<path class="st0" d="M164.0802,205.68678c-3.96936-2.317-6.77654-6.59103-7.32692-11.15254
			c-0.55037-4.56151,1.15973-9.37978,4.46446-12.57516l1.01721,1.05408c-2.98163,2.88211-4.52464,7.22986-4.0271,11.34541
			c0.49632,4.11678,3.02954,7.97189,6.61192,10.06284L164.0802,205.68678z"/>
	</g>
	<g>
		<path class="st0" d="M183.79063,184.91982l-0.67078-3.59956c6.64017-1.2359,12.97443-4.06888,18.31851-8.19548
			c3.274-2.52707,5.51729-5.06889,6.85884-7.76918c1.5676-3.15117,1.83418-6.66843,0.71254-9.40926
			c-1.00125-2.44968-3.30965-4.84285-5.96571-5.09224c-6.72739,8.29008-17.4352,13.54324-29.53615,14.4548
			c-10.14638,0.76169-21.28171-1.44719-33.1001-6.57506c-1.45335-0.63022-2.89563-1.2924-4.33792-1.9558
			c-4.3416-1.99513-8.44118-3.87968-12.85773-4.93622c-5.55784-1.33049-14.65751-0.42998-19.33695,3.03323l-2.1794-2.94354
			c5.68192-4.20277,16.03345-5.16963,22.36895-3.6524c4.76666,1.1413,9.22375,3.19048,13.53464,5.17085
			c1.41895,0.65234,2.83665,1.3047,4.26544,1.92509c11.26801,4.88831,21.83086,6.99644,31.36787,6.28267
			c11.24467-0.84767,21.51636-5.99028,27.47838-13.75822l0.50493-0.65849l0.82925-0.05283
			c4.90549-0.32802,8.81219,3.59834,10.35522,7.37238c1.53564,3.75558,1.23589,8.28392-0.82312,12.42528
			c-1.59462,3.20767-4.17821,6.1635-7.90063,9.03824C197.87442,180.50328,190.99837,183.5795,183.79063,184.91982z"/>
	</g>
	<g>
		<path class="st0" d="M184.65796,202.48894l-0.93858-3.40302c0.1855-0.05161,18.71655-5.23105,33.64066-15.09486
			c8.70776-5.75687,12.8356-9.67953,13.38229-12.71767c0.2715-1.50249-0.2887-3.07008-1.87103-5.23843
			c-4.2814-5.87233-5.72369-7.85027-18.32957-9.02473l0.32678-3.51357c13.50516,1.25801,15.90446,3.6696,20.85542,10.45718
			c1.4644,2.00987,3.07253,4.72736,2.49266,7.94485c-0.76167,4.23227-4.94234,8.44733-14.91058,15.0359
			C203.90279,197.11659,185.43562,202.27394,184.65796,202.48894z"/>
	</g>
	<g>
		<path class="st0" d="M150.02098,204.72238c-13.22874-1.0381-26.1786-5.28633-37.4503-12.284l1.86244-3.00006
			c10.7938,6.70284,23.19452,10.77046,35.86305,11.76558L150.02098,204.72238z"/>
	</g>
	<g>
		<path class="st0" d="M147.2912,193.57353c-11.1857-0.26044-22.10358-4.32071-30.7401-11.4314l1.86244-2.26294
			c8.13282,6.69667,18.41311,10.51984,28.94646,10.76555L147.2912,193.57353z"/>
	</g>
	<g>
		
			<rect x="123.82244" y="143.16827" transform="matrix(0.1015 -0.99484 0.99484 0.1015 -26.29429 260.15231)" class="st0" width="14.10524" height="2.92918"/>
	</g>
	<g>
		<path class="st0" d="M167.37018,146.14148c-24.32475,0-41.19975-10.31836-41.43808-10.46701l-0.82311-0.51598l0.15479-0.95825
			c2.11674-13.15257,10.17831-17.0175,10.52107-17.17476c24.73264-9.53825,55.71721-2.00372,61.8279,5.38831
			c5.5087,6.66473,5.03694,14.94867,5.01483,15.2988l-0.05898,0.89436l-0.8231,0.35504
			C189.41357,144.27412,177.71558,146.14148,167.37018,146.14148z M128.33017,133.6769
			c5.35513,2.97057,35.4429,17.99786,71.37843,2.96687c-0.05161-2.14008-0.5688-7.78392-4.35388-12.36263
			c-4.36494-5.27896-33.25981-14.25824-58.42857-4.55905C136.74187,119.81423,130.39778,122.95065,128.33017,133.6769z"/>
	</g>
	<g>
		
			<rect x="197.56316" y="138.92543" transform="matrix(0.92996 -0.36766 0.36766 0.92996 -39.28989 83.31522)" class="st0" width="2.92969" height="11.70846"/>
	</g>
	<g>
		
			<rect x="134.50645" y="147.78191" transform="matrix(0.16182 -0.98682 0.98682 0.16182 -27.90745 265.63806)" class="st0" width="15.82363" height="2.93057"/>
	</g>
	<g>
		<path class="st0" d="M170.12331,139.46938c-24.03238,0-42.38036-9.2041-42.63713-9.33554l1.3354-2.60693
			c0.34891,0.17691,35.23528,17.64282,71.32437,3.50252l1.06882,2.72733
			C190.47133,137.96689,179.83232,139.46938,170.12331,139.46938z"/>
	</g>
	<g>
		<path class="st0" d="M135.95029,119.10881c2.45264,4.90836,8.29919,7.35223,13.32698,9.03519
			c0.00011-0.00011,2.46776,0.68616,2.46776,0.68616c-6.81044-0.31342-14.46785-1.64443-19.21199-7.04166
			c-0.18182-0.23598-0.31767-0.38316-0.55276-0.79477L135.95029,119.10881L135.95029,119.10881z"/>
	</g>
	<g>
		<path class="st0" d="M198.42249,124.38107c-5.02371,6.24298-16.56114,5.64856-23.78792,4.97337
			c-0.00009-0.00017,2.91489-0.28571,2.91489-0.28571c5.87582-0.87688,12.83716-1.83877,16.89677-6.53826
			c0.05559-0.09529,0.19533-0.33888,0.09831-0.21712L198.42249,124.38107L198.42249,124.38107z"/>
	</g>
	<g>
		<path class="st0" d="M106.29047,150.87131c-0.00246-0.10934-0.18551-11.0125,0-17.48189
			c0.21377-7.51243,18.71778-10.14146,24.38373-10.76801l0.40295,3.63889c-9.92646,1.10199-21.04337,4.34283-21.12568,7.23478
			c-0.18305,6.38586-0.00123,17.20424,0,17.31235L106.29047,150.87131z"/>
	</g>
	<g>
		<path class="st0" d="M106.9035,142.36501c-0.74326-0.91034-74.50134-91.43407-95.84631-118.24782
			c-1.54917-1.94598-2.01171-4.51728-1.23774-6.87911c0.77888-2.37351,2.68617-4.18128,5.10267-4.83608
			c8.9805-2.43309,23.56123-5.61742,42.02594-6.96634c4.51973-0.34276,8.87854,1.58909,11.6464,5.13891l80.74224,103.63883
			l-2.31209,1.80102L66.28238,12.37558c-2.1622-2.77523-5.57135-4.27588-9.12056-4.0185
			c-18.23251,1.33295-32.61729,4.47305-41.4731,6.87297c-1.48344,0.40173-2.60816,1.46686-3.08482,2.92081
			c-0.47298,1.4429-0.20148,2.95153,0.74571,4.14074c21.33454,26.80269,95.08217,117.31168,95.8242,118.22324L106.9035,142.36501z"
			/>
	</g>
	<g>
		<path class="st0" d="M104.487,152.80499L2.92252,27.99318c-2.68617-3.30104-3.59097-7.71635-2.4208-11.81225
			c1.17693-4.11801,4.16592-7.2747,8.20162-8.6617c9.49403-3.26234,26.14113-7.2145,51.53225-7.51795
			c4.21998-0.05897,8.33676,1.92694,10.96457,5.29125l84.316,107.90365l-2.88457,2.25557L68.31559,7.54687
			c-1.92879-2.46872-4.92884-3.93435-8.03577-3.88336C35.37519,3.96081,19.1335,7.80793,9.89378,10.98243
			c-2.88764,0.99265-5.02773,3.25436-5.87111,6.20466c-0.85382,2.989-0.21991,6.08611,1.7402,8.49401l101.56447,124.81182
			L104.487,152.80499z"/>
	</g>
	<g>
		<path class="st0" d="M139.54167,118.26752c-0.24939-0.26414-25.11838-26.48328-41.01424-42.03024
			c-2.64501-2.5885-6.28513-3.92022-9.99158-3.67451c-6.98047,0.47666-20.59496,1.79487-33.36178,5.27528l-1.15481-4.24086
			c12.47443-3.39932,25.49308-4.82318,34.21683-5.41779c4.94727-0.35136,9.8245,1.45211,13.3651,4.91532
			c15.95483,15.60593,40.88034,41.88527,41.12973,42.14817L139.54167,118.26752z"/>
	</g>
	<g>
		<path class="st0" d="M83.97434,158.9857c-21.22642-5.28389-38.22918-14.10959-38.94296-14.48306l-1.03564-0.54178
			l-0.13023-1.16096c-3.26173-29.16882,0.66095-57.66441,1.48037-63.07975l4.36617,0.51353l-0.02089,0.14374
			c-0.79485,5.24702-4.55413,32.54604-1.58602,60.75415c4.0099,1.98531,19.14408,9.16234,36.93064,13.5887L83.97434,158.9857z"/>
	</g>
</g>
</svg>
