<svg version="1.1" id="Layer_1" xmlns="http://www.w3.org/2000/svg" xmlns:xlink="http://www.w3.org/1999/xlink" x="0px" y="0px" viewBox="0 0 299.99997 294.1048" style="enable-background:new 0 0 299.99997 294.1048;" xml:space="preserve"><defs><style> .svg-style-0 {  fill: rgb(0, 0, 0); }</style></defs><path id="path-01_00000158710013607569764200000000676741047729263542_" d="M299.96692,170.38264
	c-1.19403-5.9104-2.84784-11.75464-4.9165-17.37012c-1.13757-3.08643-2.59296-6.68091-4.76678-9.94092
	c-3.20197-4.79982-7.54041-8.28969-11.73627-11.66457c-4.172-3.35596-8.48657-6.82568-13.42639-9.15038
	c-8.45947-3.98048-17.92157-4.1139-25.22176-3.78638c-4.02881,0.18115-9.32001,0.57312-14.52008,2.01172
	c-10.039,2.77686-18.74573,9.07642-27.16675,15.16919c-4.11365,2.97632-8.36647,6.05127-12.69543,8.65297
	c-0.24437-0.06787-0.48663-0.13867-0.73798-0.19739c-2.62256-0.61108-5.23724-0.4939-7.72571,0.15381
	c9.01093-13.53578,23.41809-19.53053,37.3938-25.33974c12.01984-4.99573,23.37323-9.71423,31.2704-18.83948
	c3.30933-3.82397,6.18372-8.03284,8.96381-12.10339c1.78229-2.61035,3.62592-5.30969,5.55035-7.85437
	c6.41736-8.48487,14.12427-15.83619,22.90637-21.84791c0.578-0.39575,0.84698-1.1106,0.67236-1.78882
	c-0.17407-0.67896-0.75427-1.17554-1.45105-1.24341c-5.47876-0.53516-10.76831,0.72437-16.15979,2.17651
	c-8.72626,2.35059-17.47481,5.06348-26.00313,8.06323c-4.05707,1.42651-8.3559,3.00928-12.39563,5.28406
	c-3.01697,1.69836-5.86212,3.78528-8.29187,5.60901c-7.28174,5.4629-15.64636,12.16883-22.4715,20.47974
	c-3.95618,4.81787-7.35498,10.13013-10.64203,15.26733c-3.97894,6.21948-8.09344,12.6504-13.14983,18.07886
	c-0.90118,0.96777-1.84253,1.90479-2.83917,2.89709c-0.14844,0.14783-0.29712,0.29626-0.44598,0.44458
	c4.24573-10.09362,8.41174-19.55798,11.60851-26.75354c2.48132-5.58337,4.26959-11.48401,6.03296-17.54248
	c1.07422-3.69153,2.15486-7.37878,3.23505-11.06445c7.25732-24.76563,14.76135-50.37453,20.0287-76.18507
	c0.13177-0.64478-0.12909-1.30689-0.66478-1.68921c-0.53577-0.3811-1.24609-0.4126-1.81323-0.0791
	c-16.16255,9.52555-34.05267,21.72318-44.19415,39.96632c-3.71657,6.68531-6.24715,13.94971-8.69484,20.97437
	c-4.01093,11.51123-8.15851,23.41444-9.77008,35.81593c-0.93805,7.21777-1.00366,14.38464-0.99066,21.70264
	c0.00299,1.57886,0.01056,3.17432,0.02063,4.77711c-2.61957-13.29102-6.0921-26.41505-9.5033-39.27869l-0.88715-3.34827
	c-1.2298-4.64491-2.73615-10.01368-5.05798-14.94532c-2.01007-4.26733-4.61121-8.20996-7.12665-12.02295L95.9439,14.09563
	c-0.41266-0.62463-1.1897-0.89685-1.90112-0.66809c-0.71143,0.22949-1.18372,0.90454-1.15387,1.65173l2.04913,51.41956
	c0.55847,14.01356,1.19128,29.89625,7.10548,43.89576c0.47205,1.11707,0.96497,2.11646,1.45892,3.03223
	c-4.96014-3.18408-10.2082-5.49146-15.55549-6.7959c-13.55872-3.30859-29.44196-0.3833-43.57766,8.02466
	c-11.00092,6.54212-21.01179,15.9353-32.45899,30.45656c-6.37189,8.08252-12.2237,16.96118-11.89728,27.10986
	c0.02277,0.71021,0.49396,1.32788,1.17285,1.53772c0.16211,0.05042,0.32806,0.07434,0.49182,0.07434
	c0.52161,0,1.02539-0.24561,1.34473-0.68274c3.47418-4.75159,7.06702-9.66541,11.56653-13.4801
	c3.79785-3.22034,8.23444-5.65881,12.45252-7.88037c3.82935-2.01599,7.93134-4.09277,12.27417-5.39197
	c4.83405-1.44666,10.01571-1.9353,15.02712-2.40759l29.95325-2.82289c2.42871-0.22827,4.93872-0.46423,7.24707,0.03528
	c1.10504,0.23926,2.17639,0.64746,3.26208,1.12476c-13.72296,2.96535-29.64746,12.27687-38.39435,22.88722
	c-9.13838,11.08496-14.86605,25.44458-16.5649,41.52576c-0.08563,0.80896,0.42566,1.56165,1.20923,1.77966
	c0.14911,0.04175,0.29932,0.06128,0.44733,0.06128c0.63281,0,1.2287-0.3623,1.50854-0.95874
	c3.43506-7.32886,9.93489-14.00439,18.79561-19.30469c7.12775-4.2627,15.09272-7.34583,22.79578-10.32703
	c0.93207-0.3606,1.8642-0.72119,2.79413-1.08386c1.61993-0.63098,3.97601-2.02466,6.21112-3.58374
	c-0.92523,2.37842-1.79047,4.76904-2.59204,7.17004h-5.79291c-2.52301,0-4.57538,2.05237-4.57538,4.57532v18.65637
	c0,2.29553,1.70044,4.19568,3.9068,4.52087c-2.51678,18.74268-1.32819,37.40358,3.66553,54.64232
	c0.2088,0.72009,0.86761,1.20215,1.59906,1.20215c0.07538,0,0.1524-0.00488,0.22937-0.01575
	c0.81934-0.11328,1.43152-0.81067,1.4375-1.63806c0.05707-7.88596,2.75134-15.86594,6.12634-24.6329l12.48927,50.81003
	c0.79059,3.2323,3.66608,5.49011,6.99329,5.49011h70.11157c3.3228,0,6.2005-2.2561,6.99811-5.48853l19.73279-80.3148h2.65779
	c7.60071,9.92358,13.21375,21.37733,16.22235,33.49257c0.18596,0.75098,0.85999,1.2644,1.61481,1.2644
	c0.07263,0,0.14581-0.00427,0.21906-0.01404c0.84045-0.11121,1.46405-0.83508,1.44775-1.68262
	c-0.16974-9.13879-1.98352-17.9861-3.98871-26.99916c-3.32721-14.95337-7.52197-32.22424-15.23207-47.95459
	c-1.84985-3.77466-3.83336-7.0354-5.94304-9.78198c3.61456-0.16357,7.88849,0.33252,12.05518,0.81934
	c5.61926,0.65601,11.43042,1.33496,16.01288,0.46252c8.74847-1.66418,17.80067-3.38586,26.73457-2.97253
	c6.87183,0.31714,16.67932,2.14124,24.3775,9.02881c2.59186,2.3186,4.8324,5.1106,6.90485,7.77197
	c0.32428,0.41528,0.81335,0.64185,1.31494,0.64185c0.23425,0,0.47119-0.04932,0.69464-0.15173
	C299.73157,171.90364,300.11981,171.14021,299.96692,170.38264z M257.57462,78.11407
	c-1.97319,2.60925-3.83958,5.34216-5.6447,7.98499c-2.72693,3.99304-5.54712,8.12219-8.73169,11.80237
	c-7.38257,8.53052-18.38301,13.10278-30.0298,17.94336c-15.7522,6.54713-32.03687,13.32031-41.31268,30.61366
	c-1.48083,0.87817-2.86749,1.92859-4.12561,3.09949c5.00037-10.04298,13.30602-18.25771,21.4995-25.8545
	c4.95392-4.59278,9.95825-9.07056,13.76422-12.4585c21.91583-19.50659,45.55542-39.51075,72.79176-51.68165
	C268.95245,64.94183,262.83923,71.15276,257.57462,78.11407z M172.757,135.46027c0.97437-0.9707,1.98242-1.97375,2.92645-2.9873
	c5.26189-5.64953,9.45934-12.20947,13.51854-18.5542c3.23445-5.05542,6.57898-10.28308,10.40991-14.948
	c6.60071-8.03809,14.77278-14.58569,21.89674-19.92993c2.4525-1.84046,5.08513-3.77137,7.92645-5.37037
	c3.80542-2.14307,7.94867-3.66675,11.86639-5.04443c8.45026-2.97217,17.11845-5.66052,25.76448-7.9895
	c1.74036-0.46875,3.46707-0.91455,5.18341-1.28125c-26.24831,12.3562-49.11649,31.73414-70.36276,50.64576
	c-3.8125,3.39282-8.82495,7.87817-13.78917,12.48121c-9.58136,8.88305-19.32433,18.60815-23.96532,31.18482l0.03088,0.01135
	c-0.37836,0.54822-0.73286,1.10486-1.05519,1.66907c-2.38477,4.17322-3.6676,9.54187-4.47729,14.9458
	c0.47314-6.73474,1.89893-13.44556,4.1601-19.18835c0.75043-1.90564,1.51582-3.82166,2.28987-5.73767
	C166.58073,141.61603,169.71721,138.48688,172.757,135.46027z M187.6398,77.2464c-1.08069,3.68787-2.16193,7.3772-3.23718,11.06982
	c-1.7959,6.17236-3.47844,11.72058-5.87787,17.12183c-4.44823,10.01294-10.76909,24.40771-16.58264,38.80446
	c-0.02423,0.06165-0.05133,0.12158-0.07495,0.18359l0.00079,0.00037c-0.73541,1.82239-1.46295,3.64441-2.17682,5.4574
	c-3.56207,9.04492-5.15802,20.35645-4.36353,30.61047h-4.03125l1.64069-0.18811c-2.59412-22.677,3.15582-45.35243,8.74847-64.82594
	c0.91748-3.19434,1.85663-6.38318,2.79579-9.57202c2.50244-8.50073,5.09058-17.29053,7.21344-26.05847
	c0.26733-1.1051,0.52869-2.2135,0.79004-3.3224c1.33826-5.67822,2.72205-11.55078,5.0081-16.97144
	c1.95587-4.63782,4.60797-9.03857,7.17273-13.29419c2.6239-4.35523,7.3316-13.14978,11.88373-21.65479
	c3.63409-6.78882,7.36389-13.75611,10.04541-18.48767C201.42813,30.17852,194.42758,54.08233,187.6398,77.2464z M149.03183,97.4162
	c1.56763-12.05994,5.65771-23.79786,9.61279-35.14906c2.40106-6.89185,4.88397-14.01807,8.46059-20.45166
	c8.61102-15.48963,23.21379-26.55494,37.37328-35.3335c-2.62537,4.68799-6.05151,11.08814-9.39752,17.33875
	c-4.54291,8.48657-9.23975,17.2627-11.84253,21.58118c-2.5946,4.30591-5.27814,8.75879-7.28008,13.50659
	c-2.34082,5.5498-3.74091,11.49121-5.09491,17.2373c-0.2608,1.10499-0.52106,2.21009-0.78784,3.31251
	c-2.1131,8.72778-4.69525,17.49805-7.19228,25.97925c-0.94025,3.19263-1.87994,6.38477-2.79852,9.58301
	c-5.63751,19.62744-11.43121,42.49257-8.80286,65.47377h-1.43854c-0.5246-8.89124-0.95178-18.90686-1.25464-29.24719l0.06946-0.005
	c-0.02985-0.40723-0.07104-0.8136-0.10345-1.22058c-0.29565-10.44704-0.46674-21.1736-0.48541-31.33876
	C148.0563,111.48029,148.12033,104.4339,149.03183,97.4162z M119.40274,55.70599c2.45093,3.71497,4.9848,7.55615,6.89349,11.60779
	c2.20258,4.67896,3.60431,9.6687,4.85089,14.37794l0.88763,3.34949c5.42755,20.46753,11.0235,41.59486,12.99829,62.88051
	c-0.52502-0.54614-1.05762-1.06543-1.56189-1.55591c-0.43866-0.42676-0.8584-0.83447-1.23199-1.22217
	c-1.98431-2.06201-4.77765-3.12428-7.56354-3.02248c-1.42065-2.78955-2.26831-5.88452-3.08655-8.89062l-8.23395-30.24927
	c-2.44171-8.97192-4.96637-18.24854-8.0658-27.20704c-1.67822-4.84973-3.56091-9.71094-5.38171-14.41162
	c-2.63153-6.79199-5.35193-13.81567-7.48456-20.89087c-1.62183-5.37903-2.93243-10.89563-3.9162-16.44092L119.40274,55.70599z
	 M96.45626,20.92241l0.09137,0.13843l-0.08539,0.01318L96.45626,20.92241z M98.26736,66.36651L96.50698,22.1967
	c1.02521,6.32373,2.47395,12.62781,4.32081,18.7555c2.15161,7.13648,4.88397,14.19043,7.52631,21.01233
	c1.81543,4.68665,3.69263,9.53308,5.3606,14.35413c3.08154,8.90528,5.59863,18.15479,8.03326,27.09962l8.23389,30.24927
	c0.78992,2.90332,1.6098,5.88599,2.94598,8.67126c-0.51062,0.11194-1.01562,0.26247-1.50848,0.45912
	c-0.66724,0.26587-1.27454,0.59094-1.86316,0.90894c-4.8053-9.10304-10.0885-16.42213-16.11804-22.3296
	c-0.83521-0.81837-1.68774-1.60328-2.55139-2.36427c-0.5451-1.00684-1.19293-1.98254-1.88086-3.0083
	c-1.23523-1.84094-2.63477-3.92749-3.89331-6.90649C99.43423,95.65717,98.84103,80.76666,98.26736,66.36651z M3.89868,166.39388
	c0.026-0.11719,0.05951-0.23315,0.08716-0.3501l0.14355,0.05493C4.05297,166.19734,3.97485,166.29512,3.89868,166.39388z
	 M14.52606,147.17488c11.18311-14.18556,20.91254-23.33204,31.54585-29.65627c13.39174-7.96558,28.36672-10.75366,41.08547-7.65161
	c8.51318,2.0769,16.79426,6.88,23.9491,13.88953c5.70764,5.59228,10.73462,12.5349,15.32983,21.17518
	c-0.83862,0.14038-1.72174,0.16895-2.63831,0.19104l0.29462-0.30554l-18.95294-18.25294
	c-1.92114-1.8501-3.90735-3.76318-6.23737-5.23315c-3.87537-2.44495-8.7447-3.74805-15.32478-4.09937
	c-8.17102-0.43213-16.38861,0.5531-24.3357,1.50964c-2.26654,0.27332-4.61011,0.5553-6.84851,1.33008
	c-3.15582,1.09266-5.84749,3.06092-8.55489,5.15345c-12.37555,9.56188-23.95075,20.30909-34.40406,31.94288
	c-1.67859,1.86755-3.2793,3.73804-4.52838,5.80347C6.91925,157.39021,10.61554,152.13533,14.52606,147.17488z M92.2485,137.94806
	c-2.81262-0.61011-5.70923-0.33667-8.26483-0.09595l-29.95331,2.82275c-5.17244,0.48706-10.52108,0.99121-15.66964,2.53236
	c-4.62909,1.38489-8.89709,3.54358-12.87116,5.63611c-4.38239,2.30762-9.00006,4.84814-13.05548,8.28699
	c-1.6228,1.37585-3.1214,2.86682-4.53272,4.42737c0.85767-1.11267,1.79956-2.19434,2.77203-3.27612
	c10.38611-11.55957,21.88697-22.23781,34.18336-31.73902c2.59351-2.00415,5.16377-3.88672,8.08101-4.89648
	c2.07025-0.7168,4.32379-0.98841,6.5036-1.25086c7.87494-0.94836,16.01722-1.92932,24.04725-1.49988
	c6.28455,0.33569,10.89954,1.55737,14.52441,3.84449c2.18635,1.37952,4.11073,3.2323,5.97114,5.02393l18.09143,17.42384
	c-0.07007,0.00427-0.1391,0.00562-0.20941,0.01074c-1.71918,0.12305-3.47687,0.50098-5.22827,1.09302
	c-5.09735-1.24524-12.07623-3.18457-17.29095-5.53505c-0.46143-0.20813-0.92017-0.42395-1.37946-0.64038
	C96.16891,139.26947,94.30898,138.39435,92.2485,137.94806z M45.03052,198.22493c-0.21783,0.27075-0.43365,0.54248-0.64337,0.81616
	c2.44714-12.16028,7.42165-23.00513,14.59389-31.7063c9.40961-11.41406,27.52674-21.2373,41.43684-22.51587
	c1.49304,0.58984,3.06287,1.14795,4.65253,1.66992c-11.21485,2.95142-23.05305,9.12988-29.34126,15.50586
	c-2.6792,2.71606-5.0824,5.73804-7.40588,8.66016l-0.9527,1.19678c-7.1565,8.96265-14.80152,17.71265-22.7242,26.00635
	L45.03052,198.22493z M86.18679,173.80415c-0.9278,0.36169-1.85718,0.72119-2.78711,1.08118
	c-7.83264,3.03125-15.93207,6.16589-23.30329,10.57483c-1.56189,0.9342-3.05389,1.91125-4.4762,2.92615
	c4.48871-5.06104,8.8559-10.23999,13.0517-15.49585l0.9549-1.19885c2.29639-2.88794,4.67139-5.87463,7.28827-8.52673
	c6.49219-6.58301,19.71716-13.19531,31.25166-15.70813c1.24011,0.36975,2.46613,0.71594,3.65063,1.03577
	c-2.91626,1.68555-5.69025,3.94873-8.08801,6.67822c-3.16425,3.60156-5.49793,7.65588-7.35493,11.60669
	C94.29189,168.98616,88.80392,172.78401,86.18679,173.80415z M83.97878,203.72603v-18.65637c0-0.68579,0.55798-1.2439,1.2439-1.2439
	h4.7179c-2.16125,6.99438-3.79388,14.05994-4.90631,21.12512C84.43807,204.85933,83.97878,204.34749,83.97878,203.72603z
	 M88.84487,251.19418c-4.74121-24.79738-1.93689-51.89308,8.17694-77.46584c2.08869-5.28259,4.81617-11.3573,9.21052-16.35889
	c4.52716-5.15344,10.46033-8.46118,15.87134-8.84827c0.5379-0.03845,1.08124-0.05151,1.6571-0.06506
	c0.04077-0.00098,0.08209-0.0022,0.12305-0.00317c-9.71912,10.78577-14.83527,24.90674-18.89215,37.51526
	C98.14669,207.24373,92.7217,229.16756,88.84487,251.19418z M95.17117,234.88095c-1.16119,2.98218-2.25641,5.87305-3.22699,8.70911
	c3.72473-19.29042,8.62959-38.45155,14.633-57.1122c4.16168-12.93384,9.44366-27.47632,19.70215-38.15771
	c0.84778-0.09558,1.70844-0.2666,2.58118-0.58789c0.79327-0.29175,1.5036-0.67566,2.19067-1.04712
	c0.55634-0.3009,1.08173-0.58508,1.6012-0.79224c2.82239-1.12512,5.70386,0.02063,7.18683,1.56055
	c0.39697,0.41272,0.84265,0.84705,1.30902,1.30029c1.78705,1.73792,4.00873,3.89941,4.21143,5.85083
	c0.29266,9.14062,0.6806,17.95654,1.14679,25.88977h-7.11456c0.3252-4.84656-0.83398-12.57874-2.26843-16.56946
	c1.32495-1.80713,3.03027-3.37598,5.26483-4.14526c0.86975-0.2998,1.33228-1.24756,1.03296-2.11743
	c-0.2998-0.86914-1.24493-1.33276-2.11743-1.03296c-6.78125,2.33496-9.59167,9.8645-10.94238,13.48291
	c-0.11981,0.32092-0.22882,0.61206-0.32806,0.86743c-1.1582,2.96936-2.23834,6.03577-3.28271,9.00122
	c-3.70239,10.51074-7.53064,21.37891-15.50806,29.76636c-0.71301,0.74927-1.4776,1.49756-2.21771,2.22095
	c-0.99615,0.97388-2.02582,1.98132-2.98938,3.04736C100.5361,221.10371,97.56136,228.74275,95.17117,234.88095z
	 M136.05521,180.49434h-5.95282c0.97101-2.75476,1.97266-5.58154,3.03479-8.30432c0.10461-0.26794,0.21906-0.57495,0.3454-0.9126
	c0.34698-0.93018,0.78094-2.08301,1.3313-3.30029C135.7037,171.87654,136.31955,177.23018,136.05521,180.49434z
	 M190.96915,287.81976c-0.42889,1.73889-1.97644,2.95361-3.76312,2.95361h-70.11157c-1.78723,0-3.33209-1.21301-3.75775-2.95203
	l-13.61414-55.38571c2.06732-5.07436,4.70667-10.67213,8.78497-15.18666c0.89417-0.98962,1.84253-1.91687,2.84674-2.89941
	c0.76135-0.7439,1.5481-1.51331,2.30237-2.30664c1.14709-1.20605,2.20502-2.4574,3.1972-3.74146h93.65279L190.96915,287.81976z
	 M119.23221,204.96992c1.06586-1.62622,2.03772-3.29724,2.93793-5.00012h25.2981c0.55225,0,1-0.44727,1-1s-0.44775-1-1-1h-24.29034
	c2.25287-4.59412,4.05194-9.38062,5.74603-14.14404h60.01198c1.45659,1.11853,2.98248,2.12183,4.48041,3.10229
	c0.552,0.36157,1.10399,0.72278,1.65112,1.08936c7.0426,4.71606,13.38953,10.45898,18.85297,16.95251H119.23221z
	 M169.79417,173.9576c0.39233-2.5498,1.77747-6.28857,3.30768-8.32837c1.90729,1.49805,3.64532,3.21802,5.1328,5.11182
	c1.00586,1.28125,1.90271,2.62988,2.85162,4.05811c1.27916,1.92578,2.59711,3.90796,4.1994,5.69519H169.6304
	C169.49596,178.22176,169.43578,176.28804,169.79417,173.9576z M196.92082,185.24922
	c-0.55635-0.37305-1.1181-0.74072-1.67987-1.10828c-2.51385-1.64575-4.88776-3.19983-6.85986-5.21362
	c-1.71515-1.75049-3.07776-3.80115-4.52014-5.97168c-0.94348-1.41968-1.91846-2.88745-3.00616-4.27185
	c-2.80011-3.5658-6.38542-6.59583-10.36705-8.76306c-0.80902-0.43982-1.81976-0.14111-2.25952,0.66638
	c-0.43976,0.80847-0.14154,1.8197,0.66638,2.2594c0.50189,0.27319,0.99463,0.56519,1.48157,0.86792
	c-2.06067,2.7915-3.47644,7.14795-3.87445,9.73621c-0.39746,2.58093-0.34186,4.72302-0.20795,7.0437h-5.46089
	c0.67902-7.42175,1.64868-17.3363,5.16725-23.49414c3.47089-6.07312,10.77484-11.34265,18.0219-9.64856
	c0.63831,0.14893,1.27655,0.3501,1.94957,0.56396c6.93176,3.56885,13.19012,9.86853,18.18158,18.33789
	c4.13026,7.00952,7.09468,14.79443,9.96095,22.32349c0.46198,1.21289,0.92346,2.42542,1.38977,3.63452
	c2.8114,7.29175,5.83777,14.56641,9.03723,21.74255C217.463,202.592,208.0291,192.68806,196.92082,185.24922z M213.88695,167.87422
	c7.54852,15.40173,11.68579,32.44543,14.97064,47.21179c0.58862,2.64453,1.15582,5.27344,1.67241,7.896
	c-4.86267-10.25183-9.39374-20.79199-13.47205-31.37012c-0.46527-1.20703-0.92615-2.41675-1.38707-3.62769
	c-2.89125-7.59351-5.88055-15.44556-10.08296-22.57666c-4.12885-7.00635-9.11815-12.5835-14.64954-16.43555
	c0.36884,0.03296,0.73566,0.06262,1.09735,0.08984c0.76837,0.05737,1.49445,0.11157,2.20801,0.21313
	C201.75163,150.34138,208.3604,156.59895,213.88695,167.87422z M292.336,161.48128
	c-8.42804-7.54102-19.03259-9.53149-26.44452-9.87427c-9.33359-0.42944-18.57332,1.328-27.51106,3.02783
	c-4.08142,0.7771-9.63452,0.12866-15.00427-0.49878c-5.2478-0.61279-10.66235-1.24304-15.0874-0.6145
	c-2.19923-2.30994-4.52148-4.10571-6.96065-5.38452c3.83691-1.15918,7.48915-2.89099,11.05086-4.58118
	c2.67328-1.2682,5.43707-2.57997,8.22197-3.61891c11.28998-4.21045,24.53253-4.77649,41.66895-1.78235
	c4.23541,0.73962,7.72308,1.53247,10.97928,2.99585c3.36566,1.51344,6.58551,3.80385,9.84381,7.00246
	c4.14734,4.07178,7.59668,8.90906,10.12445,14.1604C292.92566,162.03426,292.638,161.7513,292.336,161.48128z M284.25989,146.96443
	c-3.40149-3.33911-6.77966-5.73805-10.32751-7.33327c-3.41449-1.53455-7.01709-2.35608-11.37616-3.11743
	c-17.44228-3.04834-30.95918-2.45581-42.53761,1.86267c-2.85223,1.06384-5.64911,2.39124-8.35376,3.67468
	c-4.09552,1.94337-8.31311,3.94423-12.72827,5.01173c-1.37433-0.51648-2.7821-0.8811-4.2243-1.08582
	c-0.82257-0.11707-1.63867-0.17834-2.42706-0.23755c-0.8302-0.06262-1.62346-0.12415-2.38855-0.2428
	c3.51166-2.26221,6.93561-4.73524,10.26892-7.14674c8.55818-6.19189,16.64131-12.04052,26.10176-14.65673
	c4.87854-1.35034,9.92786-1.72168,13.78157-1.89465c6.91522-0.31018,15.85345-0.19739,23.65364,3.47302
	c4.58026,2.15479,8.73706,5.49828,12.75726,8.73168c3.99902,3.21704,8.13464,6.54321,11.05188,10.91701
	c1.98193,2.97144,3.34241,6.34033,4.41223,9.24402c0.69202,1.87781,1.33026,3.7843,1.9248,5.70837
	C291.33661,155.11201,288.08716,150.72212,284.25989,146.96443z M195.51169,239.99619l3.44435-14.01662
	c0.13184-0.53613,0.67676-0.86816,1.20897-0.73242c0.53711,0.13184,0.86426,0.67285,0.73242,1.20898l-3.44434,14.01662
	c-0.11133,0.45605-0.52051,0.76172-0.96973,0.76172c-0.0791,0-0.15918-0.00879-0.23926-0.0293
	C195.707,241.07333,195.37985,240.53232,195.51169,239.99619z M162.42575,284.7735c0-0.55273,0.44727-1,1-1h21.3291l7.69922-31.332
	c0.13086-0.53613,0.67578-0.86816,1.20897-0.73242c0.53711,0.13184,0.86426,0.67285,0.73242,1.20898l-7.88574,32.09372
	c-0.10938,0.44727-0.51074,0.76172-0.9707,0.76172h-22.11328C162.87302,285.7735,162.42575,285.32623,162.42575,284.7735z" class="svg-style-0"/></svg>